# Blender 3.6.5
# www.blender.org
mtllib gba.mtl
o Cube
v 0.432950 1.080163 1.979595
v 0.432950 -0.901094 2.009440
v -0.080782 1.080163 1.979595
v -0.080782 -0.901094 2.009440
v -0.080782 -0.656476 2.176571
v -0.080782 0.011938 2.158664
v -0.080782 0.865389 2.116881
v 0.432950 0.865389 2.116881
v 0.432950 0.011938 2.158664
v 0.432950 -0.656476 2.176571
v -0.201600 -1.199542 1.056085
v -0.147880 -1.062256 1.389508
v 0.432950 1.283107 1.002364
v 0.432950 1.181635 1.562607
v -0.325509 1.181635 1.562607
v -0.379229 1.283107 1.002364
v 0.432950 -1.062256 1.389508
v 0.432950 -1.199542 1.056085
v 0.432950 -0.567240 1.015150
v 0.432950 -0.596786 1.556638
v 0.432950 0.000245 1.002365
v 0.432950 0.000780 1.532763
v 0.432950 0.775855 0.989579
v 0.432950 0.769886 1.514856
v -0.254247 -0.596786 1.556638
v -0.307967 -0.566942 0.996395
v -0.325509 0.035814 1.532763
v -0.379229 0.000000 1.002364
v -0.325509 0.769886 1.514856
v -0.379229 0.775855 1.008333
v -0.201600 -1.277138 0.000000
v 0.432950 1.277138 0.000000
v -0.379229 1.277138 0.000000
v 0.432950 -1.277138 0.000000
v 0.432950 -0.567240 0.000000
v 0.432950 0.000245 0.000000
v 0.432950 0.775855 0.000000
v -0.307967 -0.567538 0.000000
v -0.379229 0.000000 0.000000
v -0.379229 0.775855 0.000000
v 0.432950 1.080163 -1.979595
v 0.432950 -0.901094 -2.009440
v -0.080782 1.080163 -1.979595
v -0.080782 -0.901094 -2.009440
v -0.080782 -0.656476 -2.176571
v -0.080782 0.011938 -2.158664
v -0.080782 0.865389 -2.116881
v 0.432950 0.865389 -2.116881
v 0.432950 0.011938 -2.158664
v 0.432950 -0.656476 -2.176571
v -0.201600 -1.199542 -1.056085
v -0.147880 -1.062256 -1.389508
v 0.432950 1.283107 -1.002364
v 0.432950 1.181635 -1.562607
v -0.325509 1.181635 -1.562607
v -0.379229 1.283107 -1.002364
v 0.432950 -1.062256 -1.389508
v 0.432950 -1.199542 -1.056085
v 0.432950 -0.567240 -1.015150
v 0.432950 -0.596786 -1.556638
v 0.432950 0.000245 -1.002365
v 0.432950 0.000780 -1.532763
v 0.432950 0.775855 -0.989579
v 0.432950 0.769886 -1.514856
v -0.254247 -0.596786 -1.556638
v -0.307967 -0.566942 -0.996395
v -0.325509 0.035814 -1.532763
v -0.379229 0.000000 -1.002364
v -0.325509 0.769886 -1.514856
v -0.379229 0.775855 -1.008333
v 0.176084 1.080163 1.979595
v 0.176084 -0.901094 2.009440
v 0.176084 -0.656476 2.176571
v 0.176084 0.011938 2.158664
v 0.176084 0.865389 2.116881
v 0.115675 -1.199542 1.056085
v 0.142535 -1.062256 1.389508
v 0.026860 1.283107 1.002364
v 0.053721 1.181635 1.562607
v 0.026860 1.277138 0.000000
v 0.115675 -1.277138 0.000000
v 0.176084 1.080163 -1.979595
v 0.176084 -0.901094 -2.009440
v 0.176084 -0.656476 -2.176571
v 0.176084 0.011938 -2.158664
v 0.176084 0.865389 -2.116881
v 0.115675 -1.199542 -1.056085
v 0.142535 -1.062256 -1.389508
v 0.026860 1.283107 -1.002364
v 0.053721 1.181635 -1.562607
vn -0.0000 0.9716 0.2364
vn -0.0000 0.5386 0.8426
vn -0.0000 -0.9678 0.2516
vn 1.0000 -0.0000 -0.0000
vn -0.0000 -0.5641 0.8257
vn -0.0000 0.0268 0.9996
vn -0.0000 0.0489 0.9988
vn -0.9312 0.0089 0.3644
vn -0.9949 -0.0008 0.1008
vn -0.9628 0.0072 0.2701
vn -0.9901 -0.1082 0.0892
vn -0.9444 -0.2785 0.1746
vn -0.9664 -0.1423 0.2143
vn -0.0000 -0.9973 0.0733
vn -0.0000 -0.9247 0.3807
vn -0.9160 0.2161 0.3381
vn -0.9944 -0.0122 0.1053
vn -0.0000 1.0000 -0.0060
vn -0.0000 0.9840 0.1782
vn -1.0000 -0.0000 -0.0000
vn -0.9889 -0.1482 0.0109
vn -0.9922 -0.1246 0.0001
vn -0.0000 0.9716 -0.2364
vn -0.0000 0.5386 -0.8426
vn -0.0000 -0.9678 -0.2516
vn -0.0000 -0.5641 -0.8257
vn -0.0000 0.0268 -0.9996
vn -0.0000 0.0489 -0.9988
vn -0.9272 0.0183 -0.3740
vn -0.9944 0.0026 -0.1055
vn -0.9628 0.0072 -0.2701
vn -0.9901 -0.1082 -0.0892
vn -0.9530 -0.1709 -0.2502
vn -0.9652 -0.2490 -0.0793
vn -0.0000 -0.9973 -0.0733
vn -0.0000 -0.9247 -0.3807
vn -0.9160 0.2161 -0.3381
vn -0.9944 -0.0122 -0.1053
vn -0.0000 1.0000 0.0060
vn -0.0000 0.9840 -0.1782
vn -0.9862 -0.1658 -0.0001
vn -0.9922 -0.1247 -0.0000
vn -0.9272 0.0183 0.3740
vn -0.9944 0.0026 0.1055
vn -0.9286 -0.0910 0.3596
vn -0.9862 -0.1251 0.1083
vn -0.9530 -0.1709 0.2502
vn -0.9652 -0.2490 0.0793
vn -0.8671 -0.0574 0.4949
vn -0.9954 0.0011 0.0957
vn -0.9862 -0.1658 0.0001
vn -0.9312 0.0089 -0.3644
vn -0.9949 -0.0008 -0.1008
vn -0.9286 -0.0910 -0.3596
vn -0.9862 -0.1251 -0.1083
vn -0.9444 -0.2785 -0.1746
vn -0.9664 -0.1423 -0.2143
vn -0.8671 -0.0574 -0.4949
vn -0.9954 0.0011 -0.0957
vn -0.9889 -0.1482 -0.0109
vn -0.9922 -0.1246 -0.0001
vt 0.226410 0.558811
vt 0.147931 0.573064
vt 0.147931 0.545845
vt 0.079290 0.564451
vt 0.079290 0.545845
vt 0.269726 0.156186
vt 0.160008 0.128187
vt 0.269726 0.124530
vt 0.208514 0.868073
vt 0.117342 0.900137
vt 0.090520 0.877904
vt 0.200288 0.726894
vt 0.111402 0.695447
vt 0.232861 0.678724
vt 0.082985 0.789796
vt 0.078764 0.720784
vt 0.205224 0.788630
vt 0.086636 0.132432
vt 0.160008 0.100188
vt 0.938102 0.336722
vt 0.927615 0.270915
vt 0.935364 0.269290
vt 0.927018 0.422828
vt 0.929539 0.337914
vt 0.779065 0.415941
vt 0.774997 0.342812
vt 0.702746 0.412140
vt 0.696734 0.335083
vt 0.784708 0.280217
vt 0.698145 0.278397
vt 0.901669 0.246122
vt 0.773138 0.228293
vt 0.699656 0.213445
vt 0.505115 0.788564
vt 0.311349 0.868716
vt 0.308965 0.788568
vt 0.505115 0.729893
vt 0.306331 0.729916
vt 0.298165 0.664505
vt 0.505115 0.656462
vt 0.505115 0.920574
vt 0.505115 0.868728
vt 0.199022 0.910660
vt 0.507658 0.156186
vt 0.335786 0.121602
vt 0.507658 0.121602
vt 0.335786 0.156186
vt 0.910358 0.446086
vt 0.919441 0.423567
vt 0.788947 0.457676
vt 0.502174 0.604690
vt 0.328258 0.561657
vt 0.502175 0.561657
vt 0.226410 0.598997
vt 0.504719 0.468140
vt 0.504719 0.412512
vt 0.504719 0.277970
vt 0.504719 0.207883
vt 0.504719 0.334953
vt 0.777939 0.558811
vt 0.856418 0.573064
vt 0.777939 0.598997
vt 0.925059 0.564451
vt 0.856418 0.545845
vt 0.925059 0.545845
vt 0.855308 0.128187
vt 0.745590 0.156186
vt 0.745590 0.124530
vt 0.801716 0.868073
vt 0.892887 0.900137
vt 0.811208 0.910660
vt 0.898827 0.695447
vt 0.809942 0.726894
vt 0.777369 0.678724
vt 0.927244 0.789796
vt 0.805006 0.788630
vt 0.855308 0.100188
vt 0.928679 0.132432
vt 0.081823 0.270915
vt 0.071337 0.336722
vt 0.074074 0.269290
vt 0.079900 0.337915
vt 0.082421 0.422828
vt 0.230373 0.415942
vt 0.089997 0.423567
vt 0.234441 0.342812
vt 0.306692 0.412140
vt 0.224730 0.280217
vt 0.311293 0.278397
vt 0.107770 0.246122
vt 0.236300 0.228293
vt 0.698880 0.868716
vt 0.701265 0.788568
vt 0.703899 0.729916
vt 0.712065 0.664505
vt 0.701472 0.921176
vt 0.679529 0.121602
vt 0.679529 0.156186
vt 0.099081 0.446086
vt 0.220492 0.457676
vt 0.676091 0.561657
vt 0.676091 0.604690
vt 0.323496 0.468351
vt 0.309783 0.213446
vt 0.312704 0.335083
vt 0.676091 0.518625
vt 0.502175 0.518625
vt 0.745590 0.092874
vt 0.679529 0.087018
vt 0.507658 0.087018
vt 0.933964 0.790578
vt 0.919710 0.877904
vt 0.937625 0.721444
vt 0.931466 0.720784
vt 0.928679 0.156186
vt 0.855308 0.156186
vt 0.856418 0.518625
vt 0.894981 0.518625
vt 0.777939 0.518625
vt 0.328258 0.518625
vt 0.226410 0.518625
vt 0.269726 0.092874
vt 0.335786 0.087018
vt 0.076266 0.790578
vt 0.072604 0.721444
vt 0.086636 0.156186
vt 0.160008 0.156186
vt 0.147931 0.518625
vt 0.109368 0.518625
vt 0.086636 0.115628
vt 0.308757 0.921176
vt 0.685943 0.468351
vt 0.328258 0.604690
vt 0.928679 0.115628
vt 0.927973 0.878779
vt 0.082256 0.878778
s 0
usemtl Material
f 79/1/1 3/2/1 71/3/1
f 71/3/2 7/4/2 75/5/2
f 17/6/3 72/7/3 77/8/3
f 24/9/4 1/10/4 8/11/4
f 20/12/4 2/13/4 17/14/4
f 20/12/4 9/15/4 10/16/4
f 24/9/4 9/15/4 22/17/4
f 73/18/5 4/19/5 72/7/5
f 74/20/6 5/21/6 73/22/6
f 75/23/7 6/24/7 74/20/7
f 6/24/8 29/25/8 27/26/8
f 27/26/9 30/27/9 28/28/9
f 6/24/10 25/29/10 5/21/10
f 27/26/11 26/30/11 25/29/11
f 4/31/12 25/29/12 12/32/12
f 12/32/13 26/30/13 11/33/13
f 36/34/4 23/35/4 21/36/4
f 21/36/4 24/9/4 22/17/4
f 35/37/4 21/36/4 19/38/4
f 19/38/4 22/17/4 20/12/4
f 35/37/4 18/39/4 34/40/4
f 19/38/4 17/14/4 18/39/4
f 32/41/4 23/35/4 37/42/4
f 23/35/4 14/43/4 24/9/4
f 34/44/14 76/45/14 81/46/14
f 18/47/15 77/8/15 76/45/15
f 3/48/16 29/25/16 7/49/16
f 15/50/17 30/27/17 29/25/17
f 33/51/18 78/52/18 80/53/18
f 78/52/19 15/54/19 79/1/19
f 30/27/20 33/55/20 40/56/20
f 11/33/21 38/57/21 31/58/21
f 26/30/22 39/59/22 38/57/22
f 28/28/20 40/56/20 39/59/20
f 90/60/23 43/61/23 55/62/23
f 47/63/24 82/64/24 86/65/24
f 83/66/25 57/67/25 88/68/25
f 64/69/4 41/70/4 54/71/4
f 42/72/4 60/73/4 57/74/4
f 60/73/4 49/75/4 62/76/4
f 49/75/4 64/69/4 62/76/4
f 44/77/26 84/78/26 83/66/26
f 45/79/27 85/80/27 84/81/27
f 46/82/28 86/83/28 85/80/28
f 46/82/29 69/84/29 47/85/29
f 67/86/30 70/87/30 69/84/30
f 65/88/31 46/82/31 45/79/31
f 66/89/32 67/86/32 65/88/32
f 44/90/33 65/88/33 45/79/33
f 52/91/34 66/89/34 65/88/34
f 36/34/4 63/92/4 37/42/4
f 61/93/4 64/69/4 63/92/4
f 35/37/4 61/93/4 36/34/4
f 59/94/4 62/76/4 61/93/4
f 58/95/4 35/37/4 34/40/4
f 57/74/4 59/94/4 58/95/4
f 63/92/4 32/41/4 37/42/4
f 63/92/4 54/71/4 53/96/4
f 87/97/35 34/44/35 81/46/35
f 88/68/36 58/98/36 87/97/36
f 69/84/37 43/99/37 47/85/37
f 70/87/38 55/100/38 69/84/38
f 89/101/39 33/51/39 80/53/39
f 89/101/40 55/62/40 56/102/40
f 70/87/20 33/55/20 56/103/20
f 51/104/41 38/57/41 66/89/41
f 66/89/42 39/59/42 68/105/42
f 68/105/20 40/56/20 70/87/20
f 53/106/40 90/60/40 89/101/40
f 53/106/39 80/53/39 32/107/39
f 52/108/36 87/97/36 51/109/36
f 51/109/35 81/46/35 31/110/35
f 85/111/28 48/112/28 49/75/28
f 84/113/27 49/75/27 50/114/27
f 83/66/26 50/115/26 42/116/26
f 44/77/25 88/68/25 52/108/25
f 86/65/24 41/117/24 48/118/24
f 54/119/23 82/64/23 90/60/23
f 13/120/19 79/1/19 14/121/19
f 80/53/18 13/120/18 32/107/18
f 76/45/15 12/122/15 11/123/15
f 81/46/14 11/123/14 31/110/14
f 8/11/7 74/124/7 9/15/7
f 9/15/6 73/125/6 10/16/6
f 10/126/5 72/7/5 2/127/5
f 77/8/3 4/19/3 12/122/3
f 1/128/2 75/5/2 8/129/2
f 14/121/1 71/3/1 1/128/1
f 79/1/1 15/54/1 3/2/1
f 71/3/2 3/2/2 7/4/2
f 17/6/3 2/127/3 72/7/3
f 24/9/4 14/43/4 1/10/4
f 20/12/4 10/16/4 2/13/4
f 20/12/4 22/17/4 9/15/4
f 24/9/4 8/11/4 9/15/4
f 73/18/5 5/130/5 4/19/5
f 74/20/6 6/24/6 5/21/6
f 75/23/7 7/49/7 6/24/7
f 6/24/43 7/49/43 29/25/43
f 27/26/44 29/25/44 30/27/44
f 6/24/45 27/26/45 25/29/45
f 27/26/46 28/28/46 26/30/46
f 4/31/47 5/21/47 25/29/47
f 12/32/48 25/29/48 26/30/48
f 36/34/4 37/42/4 23/35/4
f 21/36/4 23/35/4 24/9/4
f 35/37/4 36/34/4 21/36/4
f 19/38/4 21/36/4 22/17/4
f 35/37/4 19/38/4 18/39/4
f 19/38/4 20/12/4 17/14/4
f 32/41/4 13/131/4 23/35/4
f 23/35/4 13/131/4 14/43/4
f 34/44/14 18/47/14 76/45/14
f 18/47/15 17/6/15 77/8/15
f 3/48/49 15/50/49 29/25/49
f 15/50/50 16/132/50 30/27/50
f 33/51/18 16/133/18 78/52/18
f 78/52/19 16/133/19 15/54/19
f 30/27/20 16/132/20 33/55/20
f 11/33/51 26/30/51 38/57/51
f 26/30/42 28/28/42 39/59/42
f 28/28/20 30/27/20 40/56/20
f 90/60/23 82/64/23 43/61/23
f 47/63/24 43/61/24 82/64/24
f 83/66/25 42/116/25 57/67/25
f 64/69/4 48/112/4 41/70/4
f 42/72/4 50/114/4 60/73/4
f 60/73/4 50/114/4 49/75/4
f 49/75/4 48/112/4 64/69/4
f 44/77/26 45/134/26 84/78/26
f 45/79/27 46/82/27 85/80/27
f 46/82/28 47/85/28 86/83/28
f 46/82/52 67/86/52 69/84/52
f 67/86/53 68/105/53 70/87/53
f 65/88/54 67/86/54 46/82/54
f 66/89/55 68/105/55 67/86/55
f 44/90/56 52/91/56 65/88/56
f 52/91/57 51/104/57 66/89/57
f 36/34/4 61/93/4 63/92/4
f 61/93/4 62/76/4 64/69/4
f 35/37/4 59/94/4 61/93/4
f 59/94/4 60/73/4 62/76/4
f 58/95/4 59/94/4 35/37/4
f 57/74/4 60/73/4 59/94/4
f 63/92/4 53/96/4 32/41/4
f 63/92/4 64/69/4 54/71/4
f 87/97/35 58/98/35 34/44/35
f 88/68/36 57/67/36 58/98/36
f 69/84/58 55/100/58 43/99/58
f 70/87/59 56/103/59 55/100/59
f 89/101/39 56/102/39 33/51/39
f 89/101/40 90/60/40 55/62/40
f 70/87/20 40/56/20 33/55/20
f 51/104/60 31/58/60 38/57/60
f 66/89/61 38/57/61 39/59/61
f 68/105/20 39/59/20 40/56/20
f 53/106/40 54/119/40 90/60/40
f 53/106/39 89/101/39 80/53/39
f 52/108/36 88/68/36 87/97/36
f 51/109/35 87/97/35 81/46/35
f 85/111/28 86/135/28 48/112/28
f 84/113/27 85/111/27 49/75/27
f 83/66/26 84/78/26 50/115/26
f 44/77/25 83/66/25 88/68/25
f 86/65/24 82/64/24 41/117/24
f 54/119/23 41/117/23 82/64/23
f 13/120/19 78/52/19 79/1/19
f 80/53/18 78/52/18 13/120/18
f 76/45/15 77/8/15 12/122/15
f 81/46/14 76/45/14 11/123/14
f 8/11/7 75/136/7 74/124/7
f 9/15/6 74/124/6 73/125/6
f 10/126/5 73/18/5 72/7/5
f 77/8/3 72/7/3 4/19/3
f 1/128/2 71/3/2 75/5/2
f 14/121/1 79/1/1 71/3/1
